<?xml version="1.0" encoding="UTF-8" standalone="no"?>
<!-- Created with Inkscape (http://www.inkscape.org/) -->

<svg
   version="1.1"
   id="svg1"
   width="1365.3333"
   height="1365.3333"
   viewBox="0 0 1365.3333 1365.3333"
   sodipodi:docname="readflow.svg"
   inkscape:version="1.4.2 (ebf0e940d0, 2025-05-08)"
   xmlns:inkscape="http://www.inkscape.org/namespaces/inkscape"
   xmlns:sodipodi="http://sodipodi.sourceforge.net/DTD/sodipodi-0.dtd"
   xmlns="http://www.w3.org/2000/svg"
   xmlns:svg="http://www.w3.org/2000/svg">
  <defs
     id="defs1" />
  <sodipodi:namedview
     id="namedview1"
     pagecolor="#ffffff"
     bordercolor="#000000"
     borderopacity="0.25"
     inkscape:showpageshadow="2"
     inkscape:pageopacity="0.0"
     inkscape:pagecheckerboard="0"
     inkscape:deskcolor="#d1d1d1"
     showgrid="false"
     inkscape:zoom="0.58740238"
     inkscape:cx="682.66663"
     inkscape:cy="682.66663"
     inkscape:window-width="1880"
     inkscape:window-height="1011"
     inkscape:window-x="0"
     inkscape:window-y="0"
     inkscape:window-maximized="1"
     inkscape:current-layer="g1" />
  <g
     inkscape:groupmode="layer"
     inkscape:label="Image"
     id="g1">
    <g
       id="g2">
      <path
         style="fill:#fdcb31"
         d="m 103.99999,967.60828 c 0.36667,-0.34622 11.60718,-3.71932 24.97892,-7.49578 29.758,-8.40428 43.28783,-13.58279 103.68774,-39.68621 11.38907,-4.92209 36.9552,-18.08848 44.66667,-23.00304 2.56666,-1.63575 12.61927,-7.67943 22.33912,-13.43039 43.16297,-25.53829 84.70626,-60.86673 119.47572,-101.60221 13.01132,-15.24391 32.31278,-40.42403 35.37569,-46.15011 1.02146,-1.90962 4.62146,-7.39496 8,-12.18964 7.00136,-9.93606 6.62443,-9.32371 17.26647,-28.05094 33.02621,-58.11758 57.02033,-120.23288 68.24343,-176.66666 10.16446,-51.11062 12.06411,-69.27991 12.61603,-120.66666 0.58839,-54.78215 -0.65724,-69.39555 -10.57254,-124.03399 -1.94614,-10.72425 -7.95265,-29.81258 -18.44992,-58.63266 -7.5193,-20.64414 -9.97353,-26.37686 -19.86265,-46.39625 -5.17916,-10.4846 -9.19496,-19.26621 -8.92401,-19.51469 0.753,-0.69055 37.77091,4.07123 49.82597,6.40933 19.76894,3.83422 57.23634,12.68943 70.66667,16.70166 38.20106,11.41236 92.19045,34.44203 120.66666,51.47146 4.03333,2.41203 12.13333,7.2329 17.99999,10.71305 43.67015,25.90541 90.54578,68.13934 127.01063,114.43382 18.24403,23.16197 44.17786,71.76036 53.47342,100.20586 5.7504,17.59692 11.6561,47.93584 13.00389,66.80397 l 0.86873,12.16156 -3.845,2.80672 c -2.11476,1.54369 -12.03971,7.77098 -22.05545,13.83843 -26.15723,15.84582 -47.51891,30.35514 -75.12289,51.0251 -4.4,3.29473 -14.3,10.60862 -22,16.25309 -20.91236,15.32974 -67.87619,54.0731 -115.99999,95.69553 -68.17406,58.96396 -126.12484,98.28546 -198.66665,134.80181 -91.47228,46.04563 -192.87822,77.86392 -361.33332,113.37608 -15.76666,3.32379 -31.96666,6.84731 -35.99999,7.83005 -9.35561,2.27953 -18.19485,3.80518 -17.33334,2.99171 z"
         id="path8" />
      <path
         style="fill:#36bde3"
         d="m 579.49656,1078.4708 c 14.25066,-48.4078 53.02994,-135.97901 91.13648,-205.80419 20.16311,-36.9462 28.88058,-51.55584 68.4208,-114.66666 7.72024,-12.32239 58.25458,-87.49373 68.12188,-101.33332 8.44106,-11.83919 19.52673,-27.91921 27.82237,-40.357 3.55474,-5.32968 8.68437,-11.19773 11.39918,-13.04011 2.71481,-1.84238 10.93601,-7.8558 18.26935,-13.36317 18.67088,-14.02191 44.17298,-31.1545 67.33994,-45.23972 10.85549,-6.6 20.84489,-12.93398 22.19865,-14.07551 1.35377,-1.14154 4.04285,-2.74744 5.97573,-3.56867 1.93288,-0.82124 12.13288,-6.54038 22.66666,-12.70922 64.3726,-37.6981 140.0361,-67.97184 208.9052,-83.58516 23.4905,-5.32553 41.7779,-8.29847 48.0355,-7.80903 l 5.2964,0.41427 -5.3326,14 c -13.0128,34.16379 -59.2246,176.05575 -89.6713,275.33331 -3.1486,10.26667 -9.1548,29.46667 -13.347,42.66667 -10.0876,31.76289 -31.9028,101.95613 -34.7608,111.8477 l -2.2675,7.8477 -9.5195,-0.83461 c -48.2068,-4.22653 -100.34936,-4.30284 -138.18606,-0.20224 -104.47788,11.32293 -202.89301,50.65463 -277.75598,111.00546 -29.08365,23.4458 -66.36889,61.5464 -85.1636,87.0261 -4.0665,5.5128 -8.3592,10.8247 -9.53932,11.8041 -1.97077,1.6356 -1.97439,1.1989 -0.0445,-5.3567 z"
         id="path7" />
      <path
         style="fill:#fe6f45"
         d="m 97.928193,966.55043 c -1.295864,-2.09675 0.30419,-3.18055 10.738467,-7.27373 5.13333,-2.01372 12.03333,-5.00249 15.33333,-6.64171 3.3,-1.63923 8.7,-4.31831 12,-5.95352 22.90417,-11.34946 28.28897,-14.2627 36,-19.4764 4.76667,-3.22292 9.13842,-5.86254 9.71501,-5.86582 0.57659,-0.003 4.87766,-2.85597 9.55795,-6.3393 4.68028,-3.48334 14.97593,-11.13334 22.87922,-17 24.58819,-18.25199 78.54148,-74.40454 86.47562,-90.00058 1.30557,-2.56634 4.99841,-8.3736 8.20631,-12.90501 3.2079,-4.53141 5.83255,-8.59064 5.83255,-9.02051 0,-0.42987 2.00201,-3.92236 4.44891,-7.76108 7.44603,-11.68137 13.59453,-22.66549 16.22163,-28.97948 1.37305,-3.3 3.23235,-6.9 4.13177,-8 0.89942,-1.1 2.92591,-5.84704 4.50332,-10.54898 1.5774,-4.70194 4.26092,-11.30194 5.96338,-14.66667 6.78887,-13.41743 18.19247,-51.45518 24.61863,-82.11768 8.87978,-42.36996 11.04156,-97.07666 5.71662,-144.66666 -3.74552,-33.47442 -8.25909,-54.9487 -18.49626,-87.99999 -6.7701,-21.85763 -7.73709,-24.65103 -13.03071,-37.64239 -2.60918,-6.40332 -4.74396,-12.56664 -4.74396,-13.69626 0,-5.25814 -21.12185,-42.42975 -38.2222,-67.26593 -8.56947,-12.44611 -9.35657,-14.10343 -7.35387,-15.48433 5.72898,-3.95023 64.28523,-12.47539 105.57607,-15.37073 37.85706,-2.65457 93.03454,-0.2815 126.59424,5.44455 9.1506,1.5613 14.36375,1.93423 14.90541,1.06629 2.19911,-3.52387 12.72344,58.31715 14.43073,84.79512 2.33505,36.21353 0.41595,101.78476 -3.82876,130.82034 -11.9767,81.92569 -35.34733,149.91404 -76.31128,221.99999 -10.64204,18.72723 -10.26511,18.11488 -17.26647,28.05094 -3.37854,4.79468 -6.97854,10.28002 -8,12.18964 -3.06291,5.72608 -22.36437,30.9062 -35.37569,46.15011 -34.76946,40.73548 -76.31275,76.06392 -119.47572,101.60221 -9.71985,5.75096 -19.77246,11.79464 -22.33912,13.43039 -7.71147,4.91456 -33.2776,18.08095 -44.66667,23.00304 -60.77905,26.26728 -73.51279,31.12734 -105.20451,40.15325 -28.486295,8.11299 -28.240741,8.06334 -29.533947,5.97089 z"
         id="path6" />
      <path
         style="fill:#d832a1"
         d="m 82.354263,973.07667 c -2.524794,-2.58571 -3.397499,-1.28076 15.336047,-22.93194 16.13485,-18.64776 39.74529,-55.23273 53.87335,-83.47811 5.97224,-11.93995 15.103,-32.42335 15.103,-33.88118 0,-0.82041 1.14151,-3.62147 2.5367,-6.22459 1.39519,-2.60312 3.77784,-8.75126 5.29478,-13.66253 1.51693,-4.91127 3.33702,-10.01136 4.04463,-11.33354 1.36625,-2.55288 11.29753,-39.45361 14.23674,-52.89816 7.43974,-34.0309 11.61178,-98.15933 8.64228,-132.8404 -2.11406,-24.69024 -7.657,-64.12079 -10.09697,-71.82625 -1.04495,-3.3 -3.49057,-13.2 -5.4347,-22 -1.94412,-8.8 -4.3408,-17.57393 -5.32594,-19.49762 -0.98514,-1.92369 -1.45397,-3.83482 -1.04184,-4.24696 0.85664,-0.85664 -2.7249,-12.34726 -6.31346,-20.25542 -1.33109,-2.93333 -5.67213,-12.66025 -9.64676,-21.61536 -4.05586,-9.13811 -12.9086,-25.12651 -20.1767,-36.43989 -7.12255,-11.08682 -12.70703,-20.40092 -12.40996,-20.69799 2.53525,-2.53525 56.67632,-20.37297 84.77564,-27.93082 31.90454,-8.58133 85.53225,-18.17934 118.91555,-21.28288 l 8.66666,-0.80572 4.45023,11.71967 c 18.85387,49.65161 27.50137,83.82554 32.48737,128.38632 5.32494,47.59 3.16316,102.2967 -5.71662,144.66666 -6.42616,30.6625 -17.82976,68.70025 -24.61863,82.11768 -1.70246,3.36473 -4.38598,9.96473 -5.96338,14.66667 -1.57741,4.70194 -3.6039,9.44898 -4.50332,10.54898 -0.89942,1.1 -2.75872,4.7 -4.13177,8 -2.6271,6.31399 -8.7756,17.29811 -16.22163,28.97948 -2.4469,3.83872 -4.44891,7.33121 -4.44891,7.76108 0,0.42987 -2.62465,4.4891 -5.83255,9.02051 -3.2079,4.53141 -6.90074,10.33867 -8.20631,12.90501 -7.93414,15.59604 -61.88743,71.74859 -86.47562,90.00058 -7.90329,5.86666 -18.19894,13.51666 -22.87922,17 -4.68029,3.48333 -8.98136,6.33601 -9.55795,6.3393 -0.57659,0.003 -4.94834,2.6429 -9.71501,5.86582 -7.64448,5.16871 -13.47447,8.32713 -35.33333,19.14199 -2.93333,1.4513 -7.37748,3.70782 -9.87588,5.01449 -2.4984,1.30668 -9.9984,4.59963 -16.66667,7.31767 -13.002447,5.29991 -15.289494,8.17192 -7.45745,9.36486 l 4.66667,0.7108 -5.96517,1.01936 c -3.280841,0.56064 -6.880841,1.81243 -7.999999,2.78176 -3.330976,2.88504 -8.468107,3.1279 -11.013898,0.52067 z"
         id="path5" />
      <path
         style="fill:#2259d4"
         d="m 568.66663,1109.0778 c -2.93333,-1.5423 -9.23333,-6.3772 -14,-10.7441 -7.94056,-7.2747 -40.61404,-29.7848 -56.66666,-39.0401 -22.07136,-12.7255 -64.95297,-30.4019 -93.99999,-38.7482 -45.67941,-13.1254 -83.20428,-20.0016 -138.66666,-25.40979 -33.40938,-3.25778 -117.33198,-3.20484 -153.61504,0.0969 -30.208224,2.74893 -29.696701,2.82438 -33.632326,-4.96057 -1.187824,-2.34961 -2.871871,-5.29323 -3.742327,-6.54139 -2.153941,-3.08857 -1.200406,-3.70524 7.848839,-5.07602 4.294141,-0.65047 13.207528,-2.16665 19.807524,-3.36929 6.6,-1.20263 16.8,-3.03059 22.66667,-4.06213 40.94428,-7.19926 106.05472,-10.25595 154.66666,-7.26103 20.56791,1.26716 57.80938,5.096 59.45419,6.11255 0.57468,0.35517 7.83259,1.86578 16.12867,3.3569 27.25692,4.89909 62.53383,15.54895 89.08379,26.89377 13.14299,5.616 41.75222,20.3491 49.33333,25.4055 3.3,2.201 9.9,6.3821 14.66667,9.2914 17.60437,10.7446 34.062,24.0188 54.19731,43.7138 7.28114,7.1219 13.292,11.9306 14.91328,11.9306 1.49378,0 9.20499,-4.4959 17.13602,-9.9908 32.53162,-22.5394 48.82006,-32.889 69.08671,-43.8976 25.49153,-13.8466 61.93147,-29.5156 86.66667,-37.26635 5.86666,-1.83831 16.37488,-5.14565 23.3516,-7.34964 6.97672,-2.204 15.07672,-4.57155 18,-5.26124 2.92328,-0.68968 9.81506,-2.4735 15.31506,-3.96403 15.79323,-4.28005 50.3656,-10.07158 81.33333,-13.62487 20.96487,-2.40555 79.60769,-3.20112 104.02005,-1.41117 39.9142,2.92655 79.4428,8.7243 124.5061,18.26159 15.3227,3.24293 28.0203,5.73301 28.2169,5.5335 0.1966,-0.1995 1.9349,-6.78986 3.8628,-14.64524 1.9279,-7.85538 4.6007,-17.75538 5.9394,-22 1.3387,-4.24461 4.5835,-15.81748 7.2108,-25.71748 2.6272,-9.9 6.9601,-26.1 9.6287,-36 2.6685,-9.9 5.6824,-21.6 6.6973,-26 1.015,-4.4 5.4769,-21.8 9.9154,-38.66666 4.4386,-16.86667 10.4797,-39.96667 13.4249,-51.33333 2.9451,-11.36667 6.8764,-26.36667 8.7361,-33.33333 4.3493,-16.29291 17.1047,-65.73392 21.8433,-84.66667 2.019,-8.06666 7.9471,-30.86666 13.1735,-50.66666 5.2264,-19.8 11.6802,-44.4 14.3419,-54.66666 8.8592,-34.17282 11.0208,-40.66858 13.5257,-40.64625 1.9044,0.017 1.9651,0.22628 0.36,1.24172 -1.4961,0.9465 -1.0461,1.43939 2,2.1905 6.312,1.55645 9.7909,4.49601 11.1511,9.42225 1.7199,6.22896 0.8122,15.48475 -1.929,19.66824 -1.2383,1.88996 -1.8736,4.42117 -1.4117,5.62491 0.462,1.20375 -1.0249,9.15838 -3.3041,17.67696 -4.3743,16.34916 -6.2917,23.70948 -17.0595,65.48833 -3.6857,14.3 -10.27,39.8 -14.6318,56.66666 -4.3619,16.86667 -10.4349,40.56667 -13.4957,52.66667 -5.914,23.38007 -10.9016,42.62146 -17.367,66.99999 -2.188,8.25 -6.0846,23.4 -8.6591,33.66667 -4.8874,19.49001 -7.0332,27.66775 -17.2195,65.62433 -3.3886,12.62671 -9.1628,34.82671 -12.8315,49.33333 -18.4503,72.95573 -22.2248,87.15543 -23.5088,88.43933 -1.3658,1.3658 -6.5528,0.5194 -29.1363,-4.7548 -14.8228,-3.4617 -73.1123,-12.5512 -102,-15.9057 -76.50893,-8.8842 -153.38954,-7.5355 -222.87064,3.9097 -48.87636,8.0511 -94.98138,20.6249 -135.1293,36.8525 -24.52945,9.9148 -49.48014,23.8628 -62,34.6595 -4.03333,3.4782 -9.02239,6.9655 -11.08679,7.7496 -6.25953,2.3773 -18.29121,1.6347 -24.24654,-1.4966 z m 7.33334,-22.2479 c 0,-0.8232 0.58116,-1.4966 1.29148,-1.4966 0.71032,0 0.94613,-0.9 0.52402,-2 -0.42211,-1.1 -0.46747,-2 -0.10081,-2 1.75261,0 1.90486,3.9892 0.20605,5.3991 -1.36228,1.1306 -1.92074,1.1589 -1.92074,0.097 z M 71.999996,976.26779 c 0,-0.58601 2.096502,-1.82358 4.658893,-2.75016 6.112506,-2.21031 9.114928,-0.42267 3.356607,1.99852 -4.86107,2.04393 -8.0155,2.33973 -8.0155,0.75164 z m 0.480527,-6.60118 c 0.43527,-2.01667 2.330449,-12.06667 4.211509,-22.33333 3.939643,-21.50224 13.275271,-70.24584 24.642908,-128.66666 4.35215,-22.36667 10.05401,-52.36667 12.6708,-66.66666 2.61679,-14.3 5.01462,-26.9 5.3285,-28 0.31389,-1.1 1.81763,-9.2 3.34164,-18 1.52402,-8.8 4.20812,-22.6 5.96469,-30.66667 1.75656,-8.06666 5.3054,-25.76666 7.88632,-39.33333 2.58091,-13.56666 7.12684,-36.36666 10.10207,-50.66666 2.97523,-14.3 6.88567,-33.5 8.68987,-42.66667 6.06056,-30.79223 10.66976,-41.33333 18.07343,-41.33333 9.11039,0 12.75104,10.04399 9.81522,27.07866 -1.03523,6.00674 -2.4174,12.42134 -3.0715,14.25467 -0.6541,1.83334 -1.82927,6.63334 -2.6115,10.66667 -0.78223,4.03333 -3.5726,17.10747 -6.20083,29.05363 -2.62823,11.94617 -5.90324,27.54617 -7.2778,34.66667 -1.37456,7.1205 -4.99369,24.64636 -8.04252,38.94636 -3.04883,14.3 -7.82805,37.1 -10.62048,50.66666 -2.79243,13.56667 -5.78089,27.26062 -6.64103,30.43101 -1.47106,5.42221 -4.28452,19.02427 -15.46112,74.74897 -2.55705,12.74899 -5.81203,27.74899 -7.23329,33.33333 -1.42127,5.58434 -6.19987,28.17338 -10.61912,50.19786 -8.743741,43.57672 -12.202523,58.50709 -14.585161,62.95909 -0.850087,1.5884 -3.76776,4.56239 -6.483718,6.60887 -2.715957,2.04647 -6.0079,4.77086 -7.315427,6.05419 -3.556848,3.49104 -5.483251,2.92819 -4.563461,-1.33333 z"
         id="path4" />
      <path
         style="fill:#0f40a4"
         d="m 572.66663,1156.733 c -10.93883,-2.6888 -18.05735,-6.6306 -29.75971,-16.4793 -10.81825,-9.1047 -14.76988,-11.4934 -39.57362,-23.9221 -21.15894,-10.6023 -61.7149,-26.07 -89.48715,-34.1296 -1.38206,-0.401 0.18716,-0.3851 3.48716,0.035 3.3,0.4206 8.7,1.5513 12,2.5127 9.57838,2.7906 23.13806,7.377 25.57034,8.6489 1.23035,0.6434 7.83035,3.3262 14.66667,5.9618 6.83631,2.6356 15.48945,6.2576 19.22921,8.0489 3.73976,1.7912 7.50168,3.2568 8.35983,3.2568 0.85815,0 3.93642,1.5 6.84061,3.3333 2.90419,1.8334 5.6241,3.3334 6.04424,3.3334 0.42015,0 2.97135,1.5 5.66934,3.3333 2.698,1.8333 5.88366,3.3333 7.07926,3.3333 1.1956,0 4.50632,1.7742 7.35715,3.9427 2.85084,2.1684 7.48805,5.6184 10.30492,7.6666 2.81687,2.0482 6.41687,4.9917 8,6.5411 1.58313,1.5494 7.07842,4.9775 12.21175,7.618 7.66966,3.9452 11.6602,5.0494 22.38725,6.1948 13.41339,1.4323 15.68684,1.2435 26.69913,-2.2173 3.53084,-1.1097 6.73882,-1.6984 7.12885,-1.3084 0.39002,0.39 -3.31205,1.9511 -8.22683,3.4692 -10.14481,3.1334 -25.19678,3.479 -35.9884,0.8264 z m 46,-7.2973 c 0,-0.7598 2.54496,-2.6799 5.65548,-4.2668 3.26267,-1.6645 4.99842,-2.099 4.10251,-1.0271 -2.38274,2.851 -9.75799,6.8522 -9.75799,5.2939 z m 16,-9.4358 c 1.1,-0.7108 2.6,-1.2925 3.33333,-1.2925 0.73334,0 0.43334,0.5817 -0.66666,1.2925 -1.1,0.7109 -2.6,1.2925 -3.33334,1.2925 -0.73333,0 -0.43333,-0.5816 0.66667,-1.2925 z m 7.25484,-3.3156 c 1.42349,-1.1097 3.13282,-2.0177 3.79849,-2.0177 0.66568,0 3.101,-0.8507 5.41183,-1.8904 7.20927,-3.2436 30.5049,-11.3598 38.59989,-13.4482 14.8986,-3.8437 12.10939,-1.7575 -4.39839,3.2898 -16.58617,5.0713 -24.68891,7.8479 -38.66666,13.25 -4.91873,1.901 -6.48114,2.1698 -4.74516,0.8165 z m 510.07843,-16.2953 c -2.5666,-0.2846 -13.9666,-2.2548 -25.3333,-4.3782 -11.3667,-2.1234 -23.6667,-4.2896 -27.3333,-4.8138 -3.6667,-0.5242 -5.9947,-1.182 -5.1735,-1.4617 2.0172,-0.6871 33.8702,4.2495 43.8401,6.7943 4.4,1.1231 10.4,2.0726 13.3334,2.1099 2.9333,0.037 6.2333,0.6496 7.3333,1.3604 2.2247,1.4377 2.5948,1.4161 -6.6667,0.3891 z m 14.3334,-1.2721 c 0.9166,-0.3699 2.4166,-0.3699 3.3333,0 0.9167,0.3699 0.1667,0.6725 -1.6667,0.6725 -1.8333,0 -2.5833,-0.3026 -1.6666,-0.6725 z m 5.6666,-1.1643 c 0,-0.3928 2.7312,-1.8848 6.0693,-3.3157 8.7235,-3.7393 19.9837,-15.4373 21.9177,-22.7697 0.8511,-3.227 2.4264,-9.1673 3.5007,-13.2006 1.9586,-7.3535 4.6635,-19.6395 7.3368,-33.3249 0.7869,-4.0286 2.3078,-8.8286 3.3798,-10.6666 l 1.949,-3.3418 -0.7286,3.3333 c -12.6924,58.067 -15.5762,66.242 -26.535,75.2219 -6.6053,5.4126 -16.8897,10.3229 -16.8897,8.0641 z m -469.33328,-1.0247 c 0,-1.0577 13.80777,-4.928 17.58131,-4.928 1.74399,0 6.45164,-0.9346 10.46146,-2.077 4.00981,-1.1423 10.29057,-2.3083 13.95723,-2.591 l 6.66667,-0.514 -8,1.7871 c -4.4,0.983 -13.7,3.0619 -20.66667,4.6199 -6.96666,1.5579 -14.31666,3.1946 -16.33333,3.6371 -2.01667,0.4426 -3.66667,0.4722 -3.66667,0.066 z m -139.5113,-8.1775 c -4.49788,-3.3097 -8.52905,-6.9325 -8.95815,-8.0507 -0.4291,-1.1182 -1.44638,-2.0331 -2.26063,-2.0331 -0.81425,0 -4.88308,-2.929 -9.04185,-6.5089 -4.15876,-3.58 -9.66139,-7.5644 -12.22805,-8.8543 -2.56667,-1.2899 -6.36771,-3.7651 -8.44677,-5.5004 -2.07905,-1.7353 -6.42905,-3.8221 -9.66666,-4.6374 -3.23762,-0.8152 -5.88657,-2.2485 -5.88657,-3.185 0,-1.4704 -11.61495,-9.9807 -13.62186,-9.9807 -0.39695,0 -4.20913,-2.1 -8.4715,-4.6666 -4.26237,-2.5667 -9.10525,-4.6667 -10.76195,-4.6667 -1.6567,0 -3.492,-0.8526 -4.07844,-1.8946 -1.06385,-1.8903 -6.46215,-4.1747 -20.47332,-8.6639 -4.07389,-1.3052 -8.87389,-3.2868 -10.66667,-4.4035 -1.79278,-1.1167 -6.55959,-3.0662 -10.59293,-4.3323 -4.03333,-1.2661 -9.73333,-3.392 -12.66666,-4.7243 -2.93333,-1.3322 -7.73333,-2.8156 -10.66667,-3.2963 -2.93333,-0.4808 -8.03333,-1.7295 -11.33333,-2.775 -18.9823,-6.0139 -45.84605,-12.3336 -62.66666,-14.7423 -40.26869,-5.7666 -55.24837,-7.32253 -88.06832,-9.14732 -51.67701,-2.87326 -75.53378,-2.54024 -138.36081,1.93142 -24.41272,1.7376 -23.127565,2.0751 -29.9818,-7.8752 -2.905117,-4.21738 -4.288505,-7.91254 -4.521242,-12.07669 -0.184439,-3.3 -0.403586,-6.9 -0.486993,-8 -0.192046,-2.53278 3.395609,-20.70083 5.134235,-26 0.721806,-2.2 2.293132,-10 3.491835,-17.33333 4.529347,-27.7093 5.273096,-31.4726 6.351735,-32.13924 0.609421,-0.37664 1.108038,-2.41216 1.108038,-4.52338 0,-2.11121 0.826439,-7.6258 1.836531,-12.25464 1.010092,-4.62884 2.549573,-12.91607 3.421069,-18.41607 0.871495,-5.5 2.156001,-12.20614 2.854457,-14.90254 0.698456,-2.69639 1.833808,-8.99639 2.523006,-14 1.933323,-14.03601 6.590969,-40.86518 7.481889,-43.09746 1.58296,-3.96627 4.68946,-16.72635 5.83167,-23.95388 2.64231,-16.71966 5.44653,-32.27047 8.54376,-47.37945 1.80393,-8.8 3.68115,-21.09999 4.17159,-27.33333 0.57065,-7.25271 1.86837,-13.25362 3.60425,-16.66666 1.49189,-2.93334 3.18061,-9.83334 3.75269,-15.33334 0.57208,-5.5 2.02881,-14.2 3.23717,-19.33333 1.20836,-5.13333 3.0412,-13.83333 4.07297,-19.33333 1.03178,-5.5 2.46568,-11.9611 3.18645,-14.358 0.72077,-2.3969 1.37541,-4.7969 1.45475,-5.33333 0.0794,-0.53643 0.42089,-2.17534 0.75899,-3.642 0.33811,-1.46667 1.1354,-8.58398 1.77176,-15.81625 0.63636,-7.23227 1.82649,-13.56334 2.64473,-14.06904 1.30577,-0.80701 3.25488,-8.32494 4.8693,-18.78138 0.28306,-1.83333 1.11241,-6.39325 1.843,-10.13315 0.73059,-3.73989 1.01924,-7.98181 0.64146,-9.42647 -0.3893,-1.48868 0.21976,-3.37911 1.40581,-4.36344 1.15098,-0.95523 2.11427,-2.41332 2.14064,-3.24019 0.0264,-0.82688 1.49978,-3.2799 3.27423,-5.45117 l 3.22627,-3.94777 -2.10186,5.94777 c -1.15602,3.27127 -4.07755,15.54776 -6.4923,27.28109 -2.41474,11.73333 -6.56322,31.83333 -9.21884,44.66666 -2.65562,12.83334 -6.94477,34.43334 -9.53143,48 -2.58666,13.56667 -6.14021,31.26667 -7.89677,39.33333 -1.75657,8.06667 -4.44067,21.86667 -5.96469,30.66667 -1.52401,8.8 -3.02775,16.9 -3.34164,18 -0.31388,1.1 -2.71171,13.7 -5.3285,28 -2.61679,14.29999 -8.31865,44.29999 -12.6708,66.66666 -11.367637,58.42082 -20.703265,107.16442 -24.642908,128.66666 -1.88106,10.26666 -3.776239,20.31666 -4.211509,22.33333 -0.919971,4.26235 1.002008,4.82223 4.577159,1.33333 1.315062,-1.28333 3.54162,-3.23333 4.947907,-4.33333 2.131716,-1.66743 2.051976,-1.27997 -0.479545,2.33015 -1.670037,2.38158 -4.496595,4.69662 -6.28124,5.14454 -1.784645,0.44792 -3.244808,1.4193 -3.244808,2.15862 0,0.79615 1.495004,0.97656 3.666666,0.44247 2.016667,-0.49596 6.347161,-1.19101 9.623321,-1.54455 3.276159,-0.35354 6.876159,-1.46693 7.999999,-2.4742 1.12384,-1.00727 4.443346,-2.2604 7.376678,-2.78473 2.93333,-0.52434 5.93333,-1.39973 6.66667,-1.94531 0.73333,-0.54558 3.13333,-1.28075 5.33333,-1.6337 22.6913,-3.64047 145.84859,-31.9052 188.18612,-43.18891 141.16457,-37.62291 244.10287,-84.36206 343.14718,-155.80604 23.98606,-17.30194 43.24206,-32.73029 73.33333,-58.75632 58.54193,-50.6331 119.42514,-100.29464 121.01204,-98.70773 0.63196,0.63196 -4.98749,9.32396 -18.16627,28.09906 -23.57307,33.58326 -68.4398,99.90694 -80.05945,118.34686 -44.85934,71.18999 -62.25595,101.18041 -90.6768,156.31979 -22.27998,43.22545 -50.40097,108.63769 -65.92718,153.35309 -3.31397,9.5443 -6.45355,18.4689 -6.97686,19.8326 -0.92362,2.407 -0.83815,2.4085 2.92154,0.054 2.13014,-1.3337 6.96868,-5.0084 10.75231,-8.1659 3.78363,-3.1575 7.72543,-5.7409 8.75955,-5.7409 1.03413,0 3.18447,-1.5 4.77853,-3.3333 1.59406,-1.8333 3.70927,-3.3333 4.70046,-3.3333 0.99119,0 2.87429,-1.1847 4.18467,-2.6327 1.31037,-1.4479 3.56523,-3.008 5.01081,-3.4668 3.01664,-0.9574 10.90187,-6.0087 15.46659,-9.9079 1.7123,-1.4626 3.9623,-2.6593 5,-2.6593 1.0377,0 1.88673,-0.6148 1.88673,-1.3663 0,-0.7515 1.44187,-1.9146 3.20416,-2.5846 4.29033,-1.6312 20.01588,-9.5759 27.46251,-13.8744 3.3,-1.9049 7.29171,-4.0364 8.87048,-4.7368 1.57876,-0.7004 3.26417,-1.9104 3.74535,-2.689 0.48118,-0.7786 1.79081,-1.4156 2.91028,-1.4156 1.11947,0 6.03406,-1.8707 10.92131,-4.1572 4.88725,-2.2865 11.88591,-5.5529 15.55257,-7.2588 3.66667,-1.7059 9.66667,-3.7559 13.33334,-4.5556 3.66666,-0.7997 8.25647,-2.6066 10.19957,-4.0155 1.9431,-1.40887 5.2431,-2.93689 7.33334,-3.3956 2.09023,-0.45871 5.30042,-1.31566 7.13375,-1.90434 1.83334,-0.58867 5.88333,-1.83594 9,-2.7717 3.11667,-0.93576 5.66667,-2.26954 5.66667,-2.96395 0,-0.69441 0.85524,-0.93439 1.90054,-0.53327 1.75021,0.67162 9.33248,-0.79911 14.09946,-2.73487 1.1,-0.44668 2.3,-0.91579 2.66666,-1.04246 0.36667,-0.12667 1.56667,-0.58746 2.66667,-1.02396 1.1,-0.43651 4.1,-1.02958 6.66667,-1.31793 6.7221,-0.75519 34.85019,-6.46375 37.99999,-7.71204 4.93134,-1.95433 30.71058,-6.08381 53.33333,-8.54325 2.2,-0.23918 4,-0.57923 4,-0.75568 0,-1.10893 11.98512,-1.56279 54,-2.0449 38.65353,-0.44354 49.61618,-0.16062 59.78229,1.54283 6.847,1.14728 13.9246,1.71562 15.728,1.26298 1.8035,-0.45263 3.9711,-0.39522 4.817,0.12758 1.9554,1.20846 3.8321,1.46668 21.6727,2.98198 8.0667,0.68515 16.5715,1.84414 18.8996,2.57553 2.3282,0.7314 4.5213,1.04154 4.8736,0.6892 0.3523,-0.35233 3.454,0.31458 6.8927,1.48203 3.4386,1.16744 9.3455,2.1707 13.1264,2.22947 3.7809,0.0588 8.1242,0.89491 9.6518,1.8581 1.5277,0.96319 5.7277,2.15161 9.3334,2.64093 3.6057,0.48932 8.3558,1.43688 10.5558,2.10567 2.2,0.6688 7,1.53711 10.6667,1.92957 3.6667,0.39247 8.2211,1.02337 10.1209,1.40201 4.1734,0.83176 6.0047,-1.14616 6.8793,-7.43012 0.7193,-5.16785 4.9021,-22.2926 8.9561,-36.66667 1.4477,-5.13333 3.8846,-14.13333 5.4151,-19.99999 1.5306,-5.86667 3.4456,-12.76667 4.2554,-15.33334 0.8099,-2.56666 2.2279,-8.26666 3.151,-12.66666 0.9232,-4.4 2.5578,-10.7 3.6324,-14 1.0747,-3.3 3.0016,-10.5 4.2821,-16 1.2805,-5.5 3.6995,-14.5 5.3755,-20 2.97,-9.74658 4.6882,-17.66454 7.3778,-34 0.7245,-4.4 2.4449,-9.55714 3.8232,-11.46032 1.3782,-1.90318 2.9045,-6.40318 3.3918,-10 0.4872,-3.59682 1.7271,-9.23968 2.7554,-12.53968 1.0283,-3.3 2.0626,-7.2 2.2984,-8.66666 0.2358,-1.46667 1.4632,-5.96667 2.7274,-10 1.2643,-4.03333 2.8364,-9.13333 3.4935,-11.33333 1.9468,-6.51743 4.2484,-19.03271 3.8468,-20.91748 -0.205,-0.96206 1.2431,-5.04919 3.218,-9.08252 1.9749,-4.03334 4.2623,-11.73681 5.0831,-17.11884 0.8208,-5.38202 3.2547,-15.28202 5.4087,-22 2.154,-6.71797 4.8255,-17.60946 5.9367,-24.20331 1.1111,-6.59385 2.7948,-13.19385 3.7414,-14.66667 1.966,-3.05858 6.1633,-19.07925 6.1633,-23.52454 0,-1.63092 1.1343,-6.60761 2.5205,-11.05931 4.7748,-15.33287 9.3304,-32.11327 10.8848,-40.09399 0.8571,-4.4 2.0132,-8.6 2.5694,-9.33333 0.5561,-0.73334 1.7953,-5.53334 2.7538,-10.66667 0.9585,-5.13333 2.2143,-9.96771 2.7905,-10.74306 0.5763,-0.77535 1.956,-4.8967 3.066,-9.15856 2.2008,-8.44938 4.0288,-11.43171 7.0069,-11.43171 1.6596,0 1.6678,0.26418 0.058,1.87413 -1.8764,1.87637 -3.4737,7.18568 -12.2727,40.79253 -2.592,9.9 -8.9858,34.2 -14.2085,54 -5.2227,19.8 -11.1477,42.6 -13.1667,50.66666 -4.7386,18.93275 -17.494,68.37376 -21.8433,84.66667 -1.8597,6.96666 -5.791,21.96666 -8.7361,33.33333 -2.9452,11.36666 -8.9863,34.46666 -13.4249,51.33333 -4.4385,16.86666 -8.9004,34.26666 -9.9154,38.66666 -1.0149,4.4 -4.0288,16.1 -6.6973,26 -2.6686,9.9 -7.0015,26.1 -9.6287,36 -2.6273,9.9 -5.8721,21.47287 -7.2108,25.71748 -1.3387,4.24462 -4.0115,14.14462 -5.9394,22 -1.9279,7.85538 -3.6662,14.44574 -3.8628,14.64524 -0.1966,0.19951 -12.8942,-2.29057 -28.2169,-5.5335 -45.0633,-9.53729 -84.5919,-15.33504 -124.5061,-18.26159 -24.41236,-1.78995 -83.05518,-0.99438 -104.02005,1.41117 -30.96773,3.55329 -65.5401,9.34482 -81.33333,13.62487 -5.5,1.49053 -12.39178,3.27435 -15.31506,3.96403 -2.92328,0.68969 -11.02328,3.05724 -18,5.26124 -6.97672,2.20399 -17.48494,5.51133 -23.3516,7.34964 -24.7352,7.75074 -61.17514,23.41974 -86.66667,37.26634 -20.26665,11.0086 -36.55509,21.3582 -69.08671,43.8976 -7.93103,5.4949 -15.64224,9.9908 -17.13602,9.9908 -1.62128,0 -7.63214,-4.8087 -14.91328,-11.9306 -20.13531,-19.695 -36.59294,-32.9692 -54.19731,-43.7138 -4.76667,-2.9093 -11.36667,-7.0904 -14.66667,-9.2914 -7.58111,-5.0564 -36.19034,-19.7895 -49.33333,-25.4055 -26.54996,-11.34481 -61.82687,-21.99467 -89.08379,-26.89376 -8.29608,-1.49112 -15.55399,-3.00173 -16.12867,-3.3569 -1.64481,-1.01655 -38.88628,-4.84539 -59.45419,-6.11255 -25.81082,-1.59017 -56.81904,-1.55773 -86,0.09 -35.31727,1.9942 -52.28405,4.09291 -92.66666,11.46242 -5.866666,1.07062 -14.180053,2.48122 -18.474194,3.13466 -9.050347,1.37719 -10.002315,1.99351 -7.848839,5.08141 0.870456,1.24816 2.554503,4.19178 3.742327,6.54139 3.935625,7.78495 3.424102,7.7095 33.632326,4.96057 36.28306,-3.30175 120.20566,-3.35469 153.61504,-0.0969 55.46238,5.40816 92.98725,12.28436 138.66666,25.40976 29.04702,8.3463 71.92863,26.0227 93.99999,38.7482 16.06423,9.2619 48.72769,31.7672 56.66666,39.0434 11.30161,10.3583 17.87889,13.6629 27.19342,13.6629 9.55284,0 13.30213,-1.5537 22.13991,-9.1751 12.51986,-10.7967 37.47055,-24.7447 62,-34.6595 29.81031,-12.0492 64.05594,-22.4105 99.79597,-30.1941 79.46688,-17.3066 168.71516,-20.9595 258.20397,-10.5681 28.8877,3.3545 87.1772,12.444 102,15.9057 22.5835,5.2742 27.7705,6.1206 29.1363,4.7548 1.284,-1.2839 5.0585,-15.4836 23.5088,-88.43929 3.6687,-14.50662 9.4429,-36.70662 12.8315,-49.33333 10.1863,-37.95658 12.3321,-46.13432 17.2195,-65.62433 2.5745,-10.26667 6.4711,-25.41667 8.6591,-33.66667 6.4654,-24.37853 11.453,-43.61992 17.367,-66.99999 3.0608,-12.1 9.1338,-35.8 13.4957,-52.66667 4.3618,-16.86666 10.8668,-42.06666 14.4555,-55.99999 9.2915,-36.07499 14.0115,-54.17437 17.881,-68.56776 1.8583,-6.91227 3.067,-13.81227 2.6861,-15.33334 -0.381,-1.52106 0.1757,-3.95194 1.2371,-5.40195 1.7589,-2.40288 1.8774,-2.04861 1.3373,4 -1.1664,13.062 -1.9868,17.91858 -3.1482,18.63638 -0.6486,0.40086 -1.53,3.56484 -1.9588,7.03108 -0.4287,3.46624 -1.4571,8.40226 -2.2853,10.96892 -0.8282,2.56667 -2.5576,9.16667 -3.8431,14.66667 -1.2855,5.5 -3.6237,14.5 -5.1961,20 -3.47,12.13777 -6.6185,26.66666 -5.7789,26.66666 0.3372,0 -0.5725,1.95 -2.0214,4.33333 -1.449,2.38334 -3.066,7.03334 -3.5935,10.33334 -1.2241,7.65854 -5.6343,25.5725 -7.469,30.33869 -0.7752,2.01372 -2.2233,7.8613 -3.218,12.99464 -0.9947,5.13333 -3.022,13.83333 -4.5052,19.33333 -1.4831,5.5 -4.5119,17.2 -6.7306,26 -2.2188,8.8 -4.9788,19.6 -6.1335,24 -1.1547,4.4 -2.917,11.3 -3.9162,15.33333 -0.9993,4.03333 -2.4619,9.42937 -3.2503,11.9912 -0.7884,2.56182 -1.4334,6.47832 -1.4334,8.70332 0,2.225 -0.9057,5.3384 -2.0125,6.91866 -1.1069,1.58026 -2.8529,6.96377 -3.8801,11.96334 -1.7543,8.539 -4.0547,17.49909 -11.9186,46.42347 -1.7944,6.6 -3.6888,14.7 -4.2098,18 -0.5209,3.3 -1.3863,6.6 -1.9229,7.33334 -1.007,1.3761 -1.9259,4.85504 -6.6917,25.33333 -1.536,6.6 -4.5235,17.7 -6.639,24.66666 -2.1154,6.96667 -4.5358,15.96667 -5.3787,20 -0.8428,4.03334 -2.0357,8.53333 -2.6508,10 -0.6151,1.46667 -2.1063,7.16667 -3.3138,12.66667 -4.7593,21.67736 -6.4685,28.77436 -7.5461,31.33326 -0.6177,1.4667 -1.7475,5.6667 -2.5107,9.3334 -3.3016,15.8616 -5.7524,17.5237 -20.6587,14.0109 -19.8775,-4.6843 -31.3058,-6.89 -45.2602,-8.7355 -8.7598,-1.1585 -16.3917,-2.3937 -16.9597,-2.7447 -0.5681,-0.3511 -5.701,-1.2069 -11.4064,-1.9018 -5.7055,-0.695 -16.0737,-2.1883 -23.0403,-3.3186 -29.2033,-4.7379 -107.76717,-9.5883 -129.33335,-7.9848 -4.76667,0.3544 -20.66667,0.951 -35.33334,1.3258 -14.66666,0.3747 -30.2137,1.2658 -34.54898,1.9802 -4.33527,0.7144 -13.63527,1.686 -20.66666,2.1593 -7.03139,0.4732 -13.38435,1.3314 -14.11769,1.907 -0.73333,0.5757 -6.13333,1.6955 -11.99999,2.4885 -5.86667,0.793 -17.56667,2.9683 -26,4.8339 -8.43334,1.8656 -20.09231,4.2799 -25.90883,5.3651 -5.81652,1.0852 -11.51652,2.794 -12.66667,3.7974 -1.15014,1.0034 -4.9375,2.234 -8.41636,2.7346 -7.52974,1.0836 -52.80671,16.2261 -55.6748,18.62 -1.1,0.9181 -4.69859,2.4414 -7.99685,3.3851 -6.90391,1.9753 -26.29507,11.5276 -33.72903,16.6152 -2.78257,1.9043 -5.65368,3.4624 -6.38024,3.4624 -2.08424,0 -8.07789,4.1431 -13.99518,9.6741 -8.90069,8.3198 -14.53625,10.7099 -26.56536,11.2668 l -10.66667,0.4938 z m 506.17798,-2.3085 c -9.1667,-1.3946 -29.8667,-3.9947 -46,-5.778 -23.2567,-2.5706 -26.18454,-3.0874 -14.1334,-2.4945 8.36,0.4114 17.06,0.9733 19.3333,1.2488 16.5222,2.0021 29.1989,3.4636 35.4667,4.089 8.3053,0.8288 26.9496,4.3312 27.8503,5.2319 0.9802,0.9802 -4.9545,0.3747 -22.5169,-2.2972 z m -317.19208,-0.361 c 1.10631,-1.1063 33.86854,-5.9871 49.19207,-7.3285 8.43333,-0.7382 19.83333,-1.9918 25.33333,-2.7858 24.9351,-3.5995 134.86151,-3.6045 159.33332,-0.01 5.25421,0.7723 0.67788,0.8667 -13.33333,0.2749 -33.32319,-1.4076 -127.64505,-0.7342 -142.66666,1.0185 -7.33333,0.8556 -21.13333,2.3952 -30.66666,3.4214 -9.53334,1.0261 -23.47939,2.7941 -30.99123,3.929 -14.41948,2.1784 -17.15071,2.4275 -16.20084,1.4776 z m -353.47458,-27.9967 c -11.16323,-3.4874 -44.63037,-11.5076 -63.99999,-15.3373 l -12.66667,-2.5044 13.33333,0.7139 c 9.21117,0.4931 14.56998,1.4336 17.33334,3.0421 2.2,1.2806 6.7,2.7346 10,3.231 3.29999,0.4964 9.89999,2.0159 14.66666,3.3766 4.76667,1.3607 13.76667,3.8233 20,5.4725 6.23333,1.6492 11.90333,3.5062 12.6,4.1266 1.94614,1.7332 -0.2567,1.3185 -11.26667,-2.121 z m 199.99999,-18.7509 c 1.72233,-1.8334 3.4315,-3.3334 3.79817,-3.3334 0.36667,0 -0.74251,1.5 -2.46484,3.3334 -1.72232,1.8333 -3.4315,3.3333 -3.79817,3.3333 -0.36666,0 0.74251,-1.5 2.46484,-3.3333 z m -297.99998,-2.0406 c -15.19869,-2.4511 -51.10421,-7.0363 -72,-9.1945 -10.95945,-1.132 -10.43917,-1.1782 6,-0.5323 20.00659,0.7861 22.2249,0.9855 32.30171,2.9038 3.86739,0.7362 13.03162,2.03 20.36496,2.8751 13.65547,1.5736 37.33116,6.3553 31.33333,6.3282 -1.83334,-0.01 -9.93334,-1.0794 -18,-2.3803 z m 304.66665,-5.7962 c 0,-0.2768 1.05,-1.3268 2.33333,-2.3333 2.11474,-1.6585 2.1619,-1.6113 0.50341,0.5034 -1.74183,2.221 -2.83674,2.9273 -2.83674,1.8299 z m -401.64277,-5.7962 c 2.39647,-0.2968 5.99647,-0.2906 8,0.014 2.00354,0.3042 0.0428,0.547 -4.35721,0.5395 -4.4,-0.01 -6.03925,-0.2564 -3.64279,-0.5531 z m -52.35721,-2.36 -30.66666,-1.5583 28,-0.1078 c 16.80192,-0.065 32.53255,0.584 39.33333,1.6218 l 11.33333,1.7295 -8.66666,-0.063 c -4.76667,-0.035 -22.46667,-0.7646 -39.33334,-1.6217 z m 461.99998,-1.1771 c 0,-0.2769 1.05,-1.3269 2.33333,-2.3333 2.11474,-1.6585 2.1619,-1.6114 0.50341,0.5034 -1.74183,2.221 -2.83674,2.9273 -2.83674,1.8299 z m -519.693106,-2.8971 c -10.145957,-2.7316 -13.967524,-5.0345 -22.311694,-13.4456 -9.732397,-9.8105 -14.644926,-17.1069 -20.293471,-30.1414 -4.005776,-9.24364 -4.639415,-12.15785 -4.678835,-21.51869 -0.04734,-11.24273 2.580799,-31.8829 6.981221,-54.82713 1.406443,-7.33333 4.091345,-23.53333 5.966447,-36 1.875102,-12.46667 6.136915,-36.76666 9.470694,-54 3.33378,-17.23333 7.226483,-37.93333 8.650451,-45.99999 1.423968,-8.06667 5.553567,-29.96667 9.176887,-48.66667 3.623319,-18.7 8.68677,-45.09999 11.252113,-58.66666 5.521243,-29.19875 6.284993,-32.41843 5.376833,-22.66667 -1.06037,11.38632 -4.522224,30.74448 -10.610676,59.33333 -1.093225,5.13334 -1.979992,10.88736 -1.970592,12.78672 0.0094,1.89936 -1.217407,8.19936 -2.726235,14 -1.508829,5.80064 -3.913458,17.74661 -5.343621,26.54661 -1.430164,8.8 -3.169053,18.4 -3.864199,21.33334 -1.872157,7.90001 -6.502568,33.69162 -7.404019,41.24073 -0.43176,3.61573 -1.030872,6.97186 -1.331358,7.45806 -1.736291,2.80938 -8.206708,38.82001 -9.217837,51.3012 -0.713114,8.80255 -3.763211,26.65742 -5.943782,34.79413 -1.737413,6.48308 -5.01377,28.76237 -6.074836,41.309 -0.981132,11.60144 0.899044,25.77076 4.288643,32.31993 1.39775,2.70065 2.927311,6.41026 3.399023,8.24356 0.471713,1.8334 3.488783,6.1684 6.7046,9.6333 3.215817,3.465 6.83144,7.8025 8.034716,9.6389 1.203277,1.8365 4.132125,4.3352 6.508552,5.5528 2.376427,1.2176 4.620776,2.6548 4.987443,3.1937 1.941053,2.8532 15.532205,6.9514 26.184478,7.8956 l 11.81552,1.0472 -10,0.098 c -5.5,0.054 -13.161909,-0.7531 -17.026466,-1.7935 z m 530.359766,-7.7696 c 0,-0.2768 1.05,-1.3268 2.33334,-2.3333 2.11474,-1.6585 2.1619,-1.6113 0.5034,0.5034 -1.74182,2.221 -2.83674,2.9273 -2.83674,1.8299 z m 592.70664,-6.1632 c 0.7727,-6.727 6.2748,-26.44887 6.8502,-24.5541 0.2039,0.6714 -1.4091,7.8207 -3.5844,15.8874 -2.1937,8.1351 -3.6481,11.9947 -3.2658,8.6667 z m -570.70664,-16 c 2.86432,-2.9334 5.50786,-5.3334 5.87453,-5.3334 0.36667,0 -1.67687,2.4 -4.5412,5.3334 -2.86432,2.9333 -5.50786,5.3333 -5.87452,5.3333 -0.36667,0 1.67687,-2.4 4.54119,-5.3333 z m 14.66667,-13.33336 c 1.32731,-1.46667 2.7133,-2.66667 3.07996,-2.66667 0.36667,0 -0.41931,1.2 -1.74663,2.66667 -1.32731,1.46667 -2.7133,2.66667 -3.07997,2.66667 -0.36666,0 0.41932,-1.2 1.74664,-2.66667 z m 563.44787,1.9995 c -0.1037,-1.20678 0.6369,-4.87055 5.3903,-26.66616 0.7997,-3.66667 1.9168,-9.06667 2.4825,-12 1.2085,-6.26616 5.641,-17.74991 4.889,-12.66667 -1.3537,9.15171 -12.5251,54.08739 -12.7618,51.33283 z M 667.99996,990.1632 c 0,-0.27687 1.05,-1.32687 2.33333,-2.33333 2.11474,-1.6585 2.1619,-1.61134 0.50341,0.5034 -1.74183,2.221 -2.83674,2.92731 -2.83674,1.82993 z m 13.33333,-10.66667 c 0,-0.27687 1.05,-1.32687 2.33334,-2.33333 2.11474,-1.65849 2.1619,-1.61133 0.5034,0.50341 -1.74182,2.221 -2.83674,2.9273 -2.83674,1.82992 z m 5.33334,-4 c 0,-0.27687 1.05,-1.32687 2.33333,-2.33333 2.11474,-1.65849 2.1619,-1.61133 0.50341,0.50341 -1.74183,2.221 -2.83674,2.9273 -2.83674,1.82992 z m -593.333302,-22.967 c 0,-0.71646 0.870583,-4.64505 1.934628,-8.7302 1.064046,-4.08515 5.593284,-25.6612 10.064984,-47.94679 4.47169,-22.28559 9.2932,-45.08827 10.71447,-50.67261 1.42126,-5.58434 4.67624,-20.58434 7.23329,-33.33333 11.1766,-55.7247 13.99006,-69.32676 15.46112,-74.74897 0.86014,-3.17039 3.8486,-16.86434 6.64103,-30.43101 2.79243,-13.56666 7.57165,-36.36666 10.62048,-50.66666 3.04883,-14.3 6.65277,-31.7 8.00875,-38.66666 1.35599,-6.96667 4.05597,-19.86667 5.99997,-28.66667 1.94399,-8.8 4.95568,-22.6 6.69264,-30.66666 1.73697,-8.06667 3.75934,-17.06667 4.49417,-20 0.73483,-2.93334 1.86107,-8.33333 2.50276,-12 l 1.16672,-6.66667 1.56097,6 c 0.85853,3.3 2.77631,10.5 4.26172,16 3.27462,12.1248 8.49791,48.38065 10.73202,74.49292 2.96773,34.68696 -1.20485,98.8143 -8.64354,132.8404 -2.93921,13.44455 -12.87049,50.34528 -14.23674,52.89816 -0.70761,1.32218 -2.5277,6.42227 -4.04463,11.33354 -1.51694,4.91127 -3.89959,11.05941 -5.29478,13.66253 -1.39519,2.60312 -2.5367,5.40418 -2.5367,6.22459 0,2.90472 -13.72864,31.82902 -24.62488,51.88117 -14.77396,27.18822 -48.708452,74.46736 -48.708452,67.86292 z M 1237.963,936.99994 c 0.4754,-3.11666 1.7082,-8.66666 2.7397,-12.33333 3.3753,-11.99862 6.2039,-23.8352 7.9656,-33.33333 0.9521,-5.13333 2.995,-13.83333 4.5397,-19.33333 1.5446,-5.5 4.8648,-18.7 7.3782,-29.33333 4.5054,-19.061 7.1639,-27.80655 7.3292,-24.11105 0.075,1.68237 -17.3684,74.52998 -21.8967,91.44438 -0.9816,3.66666 -3.1052,12.51666 -4.7189,19.66666 -3.0093,13.33335 -4.8781,17.44045 -3.3368,7.33333 z M 899.74995,881.7558 c 0.9625,-0.38517 2.1125,-0.3378 2.55555,0.10526 0.44306,0.44305 -0.34444,0.75819 -1.75,0.70029 -1.55326,-0.064 -1.8692,-0.37992 -0.80555,-0.80555 z m 53.33333,-8 c 0.9625,-0.38516 2.1125,-0.3378 2.55555,0.10526 0.44306,0.44305 -0.34444,0.75819 -1.75,0.70029 -1.55326,-0.064 -1.8692,-0.37992 -0.80555,-0.80555 z m 35.24999,-2.67495 c 1.28334,-0.33537 3.38334,-0.33537 4.66667,0 1.28333,0.33537 0.23333,0.60976 -2.33333,0.60976 -2.56667,0 -3.61667,-0.27439 -2.33334,-0.60976 z m 280.49593,-60.41423 c 0.4204,-3.3 2.8789,-14.1 5.4632,-24 2.5844,-9.9 5.4559,-22.2 6.3811,-27.33333 1.8638,-10.34015 3.6955,-17.9861 6.7079,-28 1.103,-3.66667 4.1147,-15.66667 6.6926,-26.66667 2.5779,-10.99999 5.2102,-21.19999 5.8495,-22.66666 1.3638,-3.12845 3.5344,-11.94929 5.2497,-21.33333 1.7435,-9.53868 5.3079,-24.04359 8.1912,-33.33333 1.3657,-4.4 3.83,-14.79821 5.4762,-23.10713 2.936,-14.81824 2.9482,-15.27601 0.6399,-23.93888 -2.91,-10.92089 -6.103,-15.53554 -13.2595,-19.16329 -3.0549,-1.54857 -5.8544,-3.24502 -6.2211,-3.76989 -0.3666,-0.52486 -2.4666,-1.59689 -4.6666,-2.38229 -2.3322,-0.83257 -3.0211,-1.47188 -1.6522,-1.53326 8.4543,-0.37903 23.1067,12.44994 26.8854,23.53955 3.6157,10.61162 2.1105,23.97733 -5.9713,53.02185 -2.6953,9.68622 -26.6791,107.15647 -35.2691,143.33333 -6.5312,27.50612 -11.4935,45.15504 -10.4969,37.33333 z m -140.7884,-28.66667 c 0,-0.73333 0.5816,-2.23333 1.2925,-3.33333 0.7108,-1.1 1.2925,-1.4 1.2925,-0.66667 0,0.73334 -0.5817,2.23334 -1.2925,3.33334 -0.7109,1.1 -1.2925,1.4 -1.2925,0.66666 z m 22.7311,-72.1111 c 0.064,-1.55326 0.3799,-1.8692 0.8055,-0.80556 0.3852,0.9625 0.3378,2.1125 -0.1052,2.55556 -0.4431,0.44305 -0.7582,-0.34445 -0.7003,-1.75 z M 104.10526,642.61343 c -0.0579,-1.12926 0.74475,-5.32926 1.78365,-9.33334 1.03891,-4.00407 3.19807,-14.78013 4.79814,-23.94679 1.60008,-9.16667 4.09171,-21.76667 5.53696,-28 1.44526,-6.23333 3.46899,-16.43333 4.49718,-22.66667 3.00672,-18.22798 5.33907,-24.37045 12.11551,-31.90749 3.37902,-3.75828 7.42309,-7.4497 8.98682,-8.20315 1.99761,-0.9625 1.78089,-0.54242 -0.72875,1.41254 -3.83551,2.9878 -11.48653,13.25367 -13.93544,18.6981 -1.77276,3.94121 -3.99715,14.02231 -5.14848,23.33334 -0.45339,3.66666 -2.24487,12.66666 -3.98107,20 -3.90894,16.51056 -7.36312,34.45118 -7.36312,38.24321 0,2.50442 -2.00617,10.33493 -5.40328,21.09012 -0.57907,1.83333 -1.10023,2.40939 -1.15812,1.28013 z M 963.99994,524.76046 c 0,-0.36667 1.2,-1.30889 2.66667,-2.09382 1.46667,-0.78494 2.66667,-1.12716 2.66667,-0.76049 0,0.36666 -1.2,1.30888 -2.66667,2.09382 -1.46667,0.78493 -2.66667,1.12716 -2.66667,0.76049 z m 316.77306,-5.92161 c -0.3947,-0.63861 -2.6801,-1.55657 -5.0787,-2.0399 -3.151,-0.63495 -3.8504,-1.19679 -2.5208,-2.02484 1.6079,-1.00136 10.8264,2.99286 10.8264,4.69089 0,1.01788 -2.5121,0.53043 -3.2269,-0.62615 z M 150.77777,514.19791 c 0.30555,-0.2578 2.65555,-1.14955 5.22222,-1.98168 4.24058,-1.37482 4.43035,-1.33202 2.07849,0.46872 -2.11197,1.61707 -9.15374,3.07637 -7.30071,1.51296 z m 1063.19113,-3.54173 c 0.5611,-1.82758 1.593,-4.22288 2.293,-5.32288 1.0686,-1.67924 1.1631,-1.64347 0.5896,0.22299 -1.0466,3.40568 1.5103,3.66366 16.5765,1.67252 7.6479,-1.01074 16.0053,-1.77586 18.5719,-1.70026 4.1644,0.12265 -14.1618,2.82516 -29.0138,4.27857 -3.1242,0.30574 -6.6608,1.3695 -7.859,2.36391 -1.9451,1.6143 -2.0692,1.45199 -1.1582,-1.51485 z m 55.9644,-3.90537 c -0.6967,-0.68703 -3.9667,-1.48221 -7.2667,-1.76705 l -6,-0.5179 6.8573,-0.23295 c 5.0227,-0.17062 7.0627,0.30216 7.6249,1.76706 0.8864,2.31013 0.5662,2.50795 -1.2155,0.75084 z m -273.93336,-0.65702 c 0,-0.36666 1.2,-1.30888 2.66667,-2.09382 1.46669,-0.78494 2.66669,-1.12716 2.66669,-0.76049 0,0.36667 -1.2,1.30889 -2.66669,2.09382 -1.46667,0.78494 -2.66667,1.12716 -2.66667,0.76049 z M 166.18449,503.3333 c 0.42211,-1.1 1.37674,-2 2.12141,-2 0.78041,0 0.65082,0.84721 -0.30591,2 -0.91292,1.1 -1.86755,2 -2.12141,2 -0.25386,0 -0.1162,-0.9 0.30591,-2 z m 13.43872,-0.15456 c -0.45168,-0.45167 -2.80168,-1.29026 -5.22223,-1.86352 l -4.40099,-1.04229 4.85735,-0.13648 c 3.18381,-0.0895 5.12177,0.55259 5.62482,1.86352 0.81114,2.11379 0.50128,2.53901 -0.85895,1.17877 z m 833.71009,-6.36945 c 0,-0.28821 0.9311,-0.88134 2.0692,-1.31806 1.1866,-0.45533 1.7218,-0.2318 1.2547,0.52401 -0.783,1.26694 -3.3239,1.87393 -3.3239,0.79405 z m 15.2548,-8.0691 c 1.4235,-1.14045 3.1735,-2.07355 3.8889,-2.07355 1.6941,0 0.9376,0.61586 -3.1437,2.55961 -3.1431,1.49686 -3.1856,1.46911 -0.7452,-0.48606 z m 13.3333,-6.66666 c 1.4235,-1.14046 3.1735,-2.07356 3.8889,-2.07356 1.6941,0 0.9377,0.61587 -3.1437,2.55962 -3.143,1.49686 -3.1856,1.46911 -0.7452,-0.48606 z m 40.7452,-18.07356 c 1.1,-0.71087 2.6,-1.2925 3.3333,-1.2925 0.7334,0 0.4334,0.58163 -0.6666,1.2925 -1.1,0.71088 -2.6,1.2925 -3.3334,1.2925 -0.7333,0 -0.4333,-0.58162 0.6667,-1.2925 z m 157.3742,-27.33333 c 0,-0.73333 0.5816,-2.23333 1.2925,-3.33333 0.7108,-1.1 1.2925,-1.4 1.2925,-0.66667 0,0.73333 -0.5817,2.23333 -1.2925,3.33333 -0.7109,1.1 -1.2925,1.4 -1.2925,0.66667 z m 2.7399,-6.66667 c 0.1389,-2.52563 2.361,-6.77846 2.4384,-4.66666 0.04,1.1 -0.5083,2.9 -1.2192,4 -0.7108,1.1 -1.2595,1.4 -1.2192,0.66666 z m -32.3641,-4.24415 c 0.9625,-0.38516 2.1125,-0.33779 2.5555,0.10527 0.4431,0.44305 -0.3444,0.75818 -1.7499,0.70029 -1.5533,-0.064 -1.8692,-0.37992 -0.8056,-0.80556 z m 7.2754,-1.3465 c 1.2973,-0.33806 3.0973,-0.31583 4,0.0494 0.9027,0.36523 -0.1587,0.64182 -2.3587,0.61465 -2.2,-0.0272 -2.9386,-0.326 -1.6413,-0.66406 z m 20.6568,-2.68569 c 1.6586,-0.31893 4.0586,-0.30682 5.3333,0.0269 1.2748,0.33373 -0.082,0.59467 -3.0155,0.57987 -2.9333,-0.0148 -3.9763,-0.28785 -2.3178,-0.60677 z"
         id="path3" />
      <path
         style="fill:#09337e"
         d="m 580.66663,1155.873 c -11.12131,-1.2962 -25.98428,-7.628 -32.21175,-13.7227 -1.58313,-1.5494 -5.18313,-4.4929 -8,-6.5411 -2.81687,-2.0482 -7.45408,-5.4982 -10.30492,-7.6666 -2.85083,-2.1685 -6.16155,-3.9427 -7.35715,-3.9427 -1.1956,0 -4.38126,-1.5 -7.07926,-3.3333 -2.69799,-1.8333 -5.24919,-3.3333 -5.66934,-3.3333 -0.42014,0 -3.14005,-1.5 -6.04424,-3.3334 -2.90419,-1.8333 -5.98246,-3.3333 -6.84061,-3.3333 -0.85815,0 -4.62007,-1.4656 -8.35983,-3.2568 -3.73976,-1.7913 -12.49956,-5.4498 -19.46622,-8.1301 -6.96667,-2.6803 -13.26667,-5.3454 -14,-5.9225 -0.73334,-0.5772 -3.43334,-1.4874 -6,-2.0229 -2.56667,-0.5354 -7.96667,-2.3275 -12,-3.9824 -4.03334,-1.6549 -11.53334,-3.7652 -16.66667,-4.6894 -5.13333,-0.9243 -9.93333,-2.1047 -10.66666,-2.6232 -0.73334,-0.5184 -6.43334,-2.2963 -12.66667,-3.9509 -6.23333,-1.6545 -15.23333,-4.1216 -20,-5.4823 -4.76667,-1.3607 -11.36667,-2.8802 -14.66666,-3.3766 -3.3,-0.4964 -7.8,-1.95 -10,-3.2302 -2.57626,-1.4991 -8.22149,-2.6069 -15.86022,-3.1122 -6.52312,-0.4316 -17.32312,-1.9623 -24,-3.4016 -6.67688,-1.4393 -18.13978,-3.3026 -25.47311,-4.1405 -7.33334,-0.838 -16.33334,-2.1192 -20,-2.8473 -7.77811,-1.5444 -12.22126,-1.9505 -42.66667,-3.9001 -12.46666,-0.7983 -28.9211,-2.3094 -36.56542,-3.3579 -7.76117,-1.0646 -24.54168,-1.9115 -38,-1.9178 -31.96361,-0.015 -51.894773,-1.8349 -60.239677,-5.5001 -3.590524,-1.577 -6.828225,-3.2983 -7.194891,-3.8252 -0.366667,-0.5268 -2.611016,-1.9541 -4.987443,-3.1717 -2.376427,-1.2176 -5.305275,-3.7163 -6.508552,-5.5528 -1.203276,-1.8364 -4.818899,-6.1739 -8.034716,-9.6389 -3.215817,-3.4649 -6.232887,-7.7999 -6.7046,-9.6333 -0.471712,-1.8333 -2.001273,-5.54291 -3.399023,-8.24356 -3.389599,-6.54917 -5.269775,-20.71849 -4.288643,-32.31993 1.061066,-12.54663 4.337423,-34.82592 6.074836,-41.309 2.180571,-8.13671 5.230668,-25.99158 5.943782,-34.79413 1.011129,-12.48119 7.481546,-48.49182 9.217837,-51.3012 0.300486,-0.4862 0.899598,-3.84233 1.331358,-7.45806 0.901451,-7.54911 5.531862,-33.34072 7.404019,-41.24073 0.695146,-2.93334 2.434035,-12.53334 3.864199,-21.33334 1.430163,-8.8 3.834792,-20.74597 5.343621,-26.54661 1.508828,-5.80064 2.735634,-12.10064 2.726235,-14 -0.0094,-1.89936 0.877367,-7.65338 1.970592,-12.78672 1.093225,-5.13333 2.937239,-14.13333 4.097808,-19.99999 1.160569,-5.86667 2.590528,-13.06667 3.177687,-16 0.587161,-2.93334 1.798161,-10.73334 2.691121,-17.33334 0.89296,-6.6 2.85792,-16.79999 4.36658,-22.66666 1.50866,-5.86667 2.99802,-12.46667 3.30968,-14.66667 1.42404,-10.05213 4.87107,-27.8189 7.7606,-39.99999 1.73957,-7.33334 3.53382,-16.33334 3.98721,-20 2.17201,-17.56544 4.7266,-24.75361 12.27632,-34.54342 4.89635,-6.34915 12.5537,-11.32762 21.04615,-13.68326 2.87221,-0.79669 4.82933,-2.75297 6.94141,-6.93839 1.61778,-3.20587 3.27646,-6.16391 3.68596,-6.57341 1.22603,-1.22602 13.94522,-2.52132 13.21895,-1.34619 -0.3687,0.59657 -1.98495,1.09286 -3.59167,1.10288 -5.90665,0.0368 -8.77041,1.63057 -10.17624,5.66335 -0.78247,2.24458 -2.92021,6.04444 -4.75054,8.44412 -1.83033,2.39968 -3.32787,4.92963 -3.32787,5.6221 0,0.69247 -0.94171,2.04059 -2.09269,2.99582 -1.18605,0.98433 -1.79511,2.87476 -1.40581,4.36344 0.37778,1.44466 0.0891,5.68658 -0.64146,9.42647 -0.73059,3.7399 -1.55994,8.29982 -1.843,10.13315 -1.61442,10.45644 -3.56353,17.97437 -4.8693,18.78138 -0.81824,0.5057 -2.00837,6.83677 -2.64473,14.06904 -0.63636,7.23227 -1.43365,14.34958 -1.77176,15.81625 -0.3381,1.46666 -0.67964,3.10557 -0.75899,3.642 -0.0793,0.53643 -0.73398,2.93643 -1.45475,5.33333 -0.72077,2.3969 -2.15467,8.858 -3.18645,14.358 -1.03177,5.5 -2.86461,14.2 -4.07297,19.33333 -1.20836,5.13333 -2.66509,13.83333 -3.23717,19.33333 -0.57208,5.5 -2.2608,12.4 -3.75269,15.33334 -1.73588,3.41304 -3.0336,9.41395 -3.60425,16.66666 -0.49044,6.23334 -2.36766,18.53333 -4.17159,27.33333 -3.09723,15.10898 -5.90145,30.65979 -8.54376,47.37945 -1.14221,7.22753 -4.24871,19.98761 -5.83167,23.95388 -0.89092,2.23228 -5.548566,29.06145 -7.481889,43.09746 -0.689198,5.00361 -1.82455,11.30361 -2.523006,14 -0.698456,2.6964 -1.982962,9.40254 -2.854457,14.90254 -0.871496,5.5 -2.410977,13.78723 -3.421069,18.41607 -1.010092,4.62884 -1.836531,10.14343 -1.836531,12.25464 0,2.11122 -0.498617,4.14674 -1.108038,4.52338 -1.078639,0.66664 -1.822388,4.42994 -6.351735,32.13924 -1.198703,7.33333 -2.770029,15.13333 -3.491835,17.33333 -1.738626,5.29917 -5.326281,23.46722 -5.134235,26 0.08341,1.1 0.302554,4.7 0.486993,8 0.232737,4.16415 1.616125,7.85931 4.521242,12.07669 6.854235,9.9503 5.56908,9.6128 29.9818,7.8752 62.82703,-4.47166 86.6838,-4.80468 138.36081,-1.93142 32.81995,1.82479 47.79963,3.38072 88.06832,9.14732 16.82061,2.4087 43.68436,8.7284 62.66666,14.7423 3.3,1.0455 8.4,2.2942 11.33333,2.775 2.93334,0.4807 7.73334,1.9641 10.66667,3.2963 2.93333,1.3323 8.63333,3.4582 12.66666,4.7243 4.03334,1.2661 8.80015,3.2156 10.59293,4.3323 1.79278,1.1167 6.59278,3.0983 10.66667,4.4035 14.01117,4.4892 19.40947,6.7736 20.47332,8.6639 0.58644,1.042 2.42174,1.8946 4.07844,1.8946 1.6567,0 6.49958,2.1 10.76195,4.6667 4.26237,2.5666 8.07455,4.6666 8.4715,4.6666 2.00691,0 13.62186,8.5103 13.62186,9.9807 0,0.9365 2.64895,2.3698 5.88657,3.185 3.23761,0.8153 7.58761,2.9021 9.66666,4.6374 2.07906,1.7353 5.8801,4.2105 8.44677,5.5004 2.56666,1.2899 7.96666,5.1654 11.99999,8.6122 4.03334,3.4468 8.38334,6.657 9.66667,7.1338 1.28333,0.4768 2.33333,1.4554 2.33333,2.1747 0,0.7192 3.93166,4.1133 8.73702,7.5424 l 8.73703,6.2346 10.26297,-0.6198 c 11.57493,-0.699 17.49475,-3.2726 26.16168,-11.3739 5.91729,-5.531 11.91094,-9.6741 13.99518,-9.6741 0.72656,0 3.59767,-1.5581 6.38024,-3.4624 7.43396,-5.0876 26.82512,-14.6399 33.72903,-16.6152 3.29826,-0.9437 6.89685,-2.467 7.99685,-3.3851 2.86809,-2.3939 48.14506,-17.5364 55.6748,-18.62 3.47886,-0.5006 7.26622,-1.7312 8.41636,-2.7346 1.15015,-1.0034 6.85015,-2.7122 12.66667,-3.7974 5.81652,-1.0852 17.47549,-3.4995 25.90883,-5.3651 8.43333,-1.8656 20.13333,-4.0409 26,-4.8339 5.86666,-0.793 11.26666,-1.9128 11.99999,-2.4885 0.73334,-0.5756 7.0863,-1.4338 14.11769,-1.907 7.03139,-0.4733 16.33139,-1.4449 20.66666,-2.1593 4.33528,-0.7144 19.88232,-1.6055 34.54898,-1.9802 14.66667,-0.3748 30.56667,-0.9714 35.33334,-1.3258 21.56618,-1.6035 100.13005,3.2469 129.33335,7.9848 6.9666,1.1303 17.3348,2.6236 23.0403,3.3186 5.7054,0.6949 10.8383,1.5507 11.4064,1.9018 0.568,0.351 8.1999,1.5862 16.9597,2.7447 13.9544,1.8455 25.3827,4.0512 45.2602,8.7355 14.9063,3.5128 17.3571,1.8507 20.6587,-14.0109 0.7632,-3.6667 1.893,-7.8667 2.5107,-9.3334 1.0776,-2.5589 2.7868,-9.6559 7.5461,-31.33329 1.2075,-5.5 2.6987,-11.2 3.3138,-12.66667 0.6151,-1.46667 1.808,-5.96666 2.6508,-10 0.8429,-4.03333 3.2633,-13.03333 5.3787,-20 2.1155,-6.96666 5.103,-18.06666 6.639,-24.66666 4.7658,-20.47829 5.6847,-23.95723 6.6917,-25.33333 0.5366,-0.73334 1.402,-4.03334 1.9229,-7.33334 0.521,-3.3 2.4154,-11.4 4.2098,-18 7.8639,-28.92438 10.1643,-37.88447 11.9186,-46.42347 1.0272,-4.99957 2.7732,-10.38308 3.8801,-11.96334 1.1068,-1.58026 2.0125,-4.69366 2.0125,-6.91866 0,-2.225 0.645,-6.1415 1.4334,-8.70332 0.7884,-2.56183 2.251,-7.95787 3.2503,-11.9912 0.9992,-4.03333 2.7615,-10.93333 3.9162,-15.33333 1.1547,-4.4 3.9147,-15.2 6.1335,-24 2.2187,-8.8 5.2475,-20.5 6.7306,-26 1.4832,-5.5 3.5105,-14.2 4.5052,-19.33333 0.9947,-5.13334 2.4428,-10.98092 3.218,-12.99464 1.8347,-4.76619 6.2449,-22.68015 7.469,-30.33869 0.5275,-3.3 2.1445,-7.95 3.5935,-10.33334 1.4489,-2.38333 2.3586,-4.33333 2.0214,-4.33333 -0.8396,0 2.3089,-14.52889 5.7789,-26.66666 1.5724,-5.5 3.9547,-14.70584 5.294,-20.45742 1.3394,-5.75158 3.0352,-12.05158 3.7686,-14 0.7333,-1.94842 1.6838,-6.48205 2.1121,-10.07473 0.4283,-3.59268 1.4264,-7.31256 2.218,-8.26639 1.2892,-1.55332 2.3572,-8.87748 4.7594,-32.63953 1.0155,-10.04486 -2.3342,-16.65891 -10.7337,-21.19376 -5.4453,-2.93989 -6.3282,-3.07989 -8.1204,-1.28768 -1.1059,1.10595 -2.9342,5.5559 -4.0627,9.88877 -1.1286,4.33287 -2.5234,8.51233 -3.0997,9.28768 -0.5762,0.77535 -1.832,5.60973 -2.7905,10.74306 -0.9585,5.13333 -2.1977,9.93333 -2.7538,10.66667 -0.5562,0.73333 -1.7123,4.93333 -2.5694,9.33333 -1.5544,7.98072 -6.11,24.76112 -10.8848,40.09399 -1.3862,4.4517 -2.5205,9.42839 -2.5205,11.05931 0,4.44529 -4.1973,20.46596 -6.1633,23.52454 -0.9466,1.47282 -2.6303,8.07282 -3.7414,14.66667 -1.1112,6.59385 -3.7827,17.48534 -5.9367,24.20331 -2.154,6.71798 -4.5879,16.61798 -5.4087,22 -0.8208,5.38203 -3.1082,13.0855 -5.0831,17.11884 -1.9749,4.03333 -3.423,8.12046 -3.218,9.08252 0.4016,1.88477 -1.9,14.40005 -3.8468,20.91748 -0.6571,2.2 -2.2292,7.3 -3.4935,11.33333 -1.2642,4.03333 -2.4916,8.53333 -2.7274,10 -0.2358,1.46666 -1.2701,5.36666 -2.2984,8.66666 -1.0283,3.3 -2.2682,8.94286 -2.7554,12.53968 -0.4873,3.59682 -2.0136,8.09682 -3.3918,10 -1.3783,1.90318 -3.0987,7.06032 -3.8232,11.46032 -2.6896,16.33546 -4.4078,24.25342 -7.3778,34 -1.676,5.5 -4.095,14.5 -5.3755,20 -1.2805,5.5 -3.2074,12.7 -4.2821,16 -1.0746,3.3 -2.7092,9.6 -3.6324,14 -0.9231,4.4 -2.3411,10.1 -3.151,12.66666 -0.8098,2.56667 -2.7248,9.46667 -4.2554,15.33334 -1.5305,5.86666 -3.9674,14.86666 -5.4151,19.99999 -4.054,14.37407 -8.2368,31.49882 -8.9561,36.66667 -0.8746,6.28396 -2.7059,8.26188 -6.8793,7.43012 -1.8998,-0.37864 -6.4542,-1.00954 -10.1209,-1.40201 -3.6667,-0.39246 -8.4667,-1.26077 -10.6667,-1.92957 -2.2,-0.66879 -6.9501,-1.61635 -10.5558,-2.10567 -3.6057,-0.48932 -7.8057,-1.67774 -9.3334,-2.64093 -1.5276,-0.96319 -5.8709,-1.79934 -9.6518,-1.8581 -3.7809,-0.0588 -9.6878,-1.06203 -13.1264,-2.22947 -3.4387,-1.16745 -6.5404,-1.83436 -6.8927,-1.48203 -0.3523,0.35234 -2.5454,0.0422 -4.8736,-0.6892 -2.3281,-0.73139 -10.8329,-1.89038 -18.8996,-2.57553 -17.8406,-1.5153 -19.7173,-1.77352 -21.6727,-2.98198 -0.8459,-0.5228 -3.0135,-0.58021 -4.817,-0.12758 -1.8034,0.45264 -8.881,-0.1157 -15.728,-1.26298 -10.16611,-1.70345 -21.12876,-1.98637 -59.78229,-1.54283 -42.01488,0.48211 -54,0.93597 -54,2.0449 0,0.17645 -1.8,0.5165 -4,0.75568 -22.62275,2.45944 -48.40199,6.58892 -53.33333,8.54325 -3.1498,1.24829 -31.27789,6.95685 -37.99999,7.71204 -2.56667,0.28835 -5.56667,0.88142 -6.66667,1.31793 -1.1,0.4365 -2.3,0.89729 -2.66667,1.02396 -0.36666,0.12667 -1.56666,0.59578 -2.66666,1.04246 -4.76698,1.93576 -12.34925,3.40649 -14.09946,2.73487 -1.0453,-0.40112 -1.90054,-0.16114 -1.90054,0.53327 0,0.69441 -2.55,2.02819 -5.66667,2.96395 -3.11667,0.93576 -7.16666,2.18303 -9,2.7717 -1.83333,0.58868 -5.04352,1.44563 -7.13375,1.90434 -2.09024,0.45871 -5.39024,1.98673 -7.33334,3.3956 -1.9431,1.4089 -6.53291,3.2158 -10.19957,4.0155 -3.66667,0.7997 -9.66667,2.8497 -13.33334,4.5556 -3.66666,1.7059 -10.66532,4.9723 -15.55257,7.2588 -4.88725,2.2865 -9.80184,4.1572 -10.92131,4.1572 -1.11947,0 -2.4291,0.637 -2.91028,1.4156 -0.48118,0.7786 -2.16659,1.9886 -3.74535,2.689 -1.57877,0.7004 -5.57048,2.8319 -8.87048,4.7368 -7.44663,4.2985 -23.17218,12.2432 -27.46251,13.8744 -1.76229,0.67 -3.20416,1.8331 -3.20416,2.5846 0,0.7515 -0.84903,1.3663 -1.88673,1.3663 -1.0377,0 -3.2877,1.1967 -5,2.6593 -4.56472,3.8992 -12.44995,8.9505 -15.46659,9.9079 -1.44558,0.4588 -3.70044,2.0189 -5.01081,3.4668 -1.31038,1.448 -3.19348,2.6327 -4.18467,2.6327 -0.99119,0 -3.1064,1.5 -4.70046,3.3333 -1.59406,1.8333 -3.71638,3.3333 -4.71626,3.3333 -0.99988,0 -5.4604,3.0313 -9.91228,6.7362 -4.45187,3.7049 -8.3768,6.4537 -8.72206,6.1084 -1.81264,-1.8126 33.68707,-43.4142 54.07687,-63.3719 42.70538,-41.80029 77.99004,-66.95587 131.96389,-94.08131 44.6889,-22.45914 98.76822,-39.43217 157.55908,-49.4506 35.61758,-6.06952 91.88336,-8.54706 132.66666,-5.84168 14.6667,0.97291 30.5139,1.79864 35.216,1.83494 l 8.5493,0.066 1.6401,-5.33334 c 3.7326,-12.13747 19.8906,-64.10981 25.908,-83.33332 3.5581,-11.36667 9.5429,-30.56667 13.2997,-42.66667 3.7568,-12.1 7.6351,-24.4 8.6186,-27.33333 0.9835,-2.93333 3.1236,-9.83333 4.7559,-15.33333 1.6324,-5.5 5.2319,-17.2 7.9991,-26 2.7672,-8.8 7.8469,-25 11.2884,-36 20.7826,-66.42856 40.0679,-124.54301 41.9564,-126.43151 0.7307,-0.73071 3.0026,-1.44081 5.0485,-1.57798 2.046,-0.13718 13.4612,-1.36179 25.3672,-2.72137 l 21.6472,-2.47196 3.7591,3.60142 c 2.0675,1.98077 4.2336,3.60141 4.8136,3.60141 2.6345,0 9.1036,6.03553 11.4964,10.72583 3.0303,5.93983 3.2692,10.32966 1.0787,19.81944 -1.3738,5.95141 -1.2787,7.05715 0.8049,9.35948 1.2995,1.43592 4.1005,2.99245 6.2245,3.45895 2.1239,0.4665 3.8617,1.30938 3.8617,1.87307 0,0.56369 2.4594,2.13393 5.4654,3.48942 7.2336,3.2619 11.143,8.70397 14.0083,19.50001 2.3171,8.73036 2.3055,9.16895 -0.633,24 -1.6462,8.30892 -4.1105,18.70713 -5.4762,23.10713 -2.8833,9.28974 -6.4477,23.79465 -8.1912,33.33333 -1.7153,9.38404 -3.8859,18.20488 -5.2497,21.33333 -0.6393,1.46667 -3.2716,11.66667 -5.8495,22.66666 -2.5779,11 -5.5896,23 -6.6926,26.66667 -3.0068,9.99545 -4.8415,17.64823 -6.7126,28 -0.9279,5.13333 -3.8119,17.73333 -6.4089,28 -2.597,10.26666 -5.7318,22.86666 -6.9662,27.99999 -1.2343,5.13334 -4.2208,17.43334 -6.6366,27.33334 -5.595,22.92817 -12.3815,50.92769 -14.2196,58.66666 -0.7838,3.3 -2.3016,9.6 -3.373,14 -1.0713,4.4 -2.9999,12.84162 -4.2857,18.75917 -1.2858,5.91754 -3.2903,13.71754 -4.4544,17.33333 -1.1641,3.61579 -2.7633,9.72416 -3.5539,13.57416 -2.7422,13.35531 -4.172,19.72143 -6.8128,30.33333 -1.4599,5.86663 -3.8814,15.76663 -5.381,22.00003 -1.4996,6.2333 -3.3643,13.1333 -4.1438,15.3333 -1.5836,4.4694 -3.7411,13.4546 -7.0433,29.3333 -1.2201,5.8667 -3.0426,13.6667 -4.0501,17.3334 -1.0075,3.6666 -2.5222,9.3069 -3.366,12.5339 -2.0002,7.6495 -12.7348,18.4959 -23.4011,23.6446 -6.911,3.336 -9.2479,3.7825 -18.5725,3.5483 -5.8666,-0.1473 -14.5666,-1.235 -19.3333,-2.4171 -4.7667,-1.1821 -17.6667,-3.5941 -28.6667,-5.3599 -11,-1.7659 -22.7,-3.8272 -26,-4.5807 -3.3,-0.7536 -10.8,-1.9482 -16.6666,-2.6548 -5.8667,-0.7067 -15.7667,-1.9043 -22,-2.6616 -11.9013,-1.4457 -16.0365,-1.8501 -42,-4.1066 -40.39028,-3.5105 -53.58195,-4.0593 -96.30265,-4.007 -44.63152,0.055 -77.00787,1.4779 -90.36403,3.9723 -3.66667,0.6849 -12.36667,1.6264 -19.33333,2.0925 -11.99214,0.8022 -29.38343,3.2388 -42.66667,5.9778 -3.3,0.6805 -8.4,1.5375 -11.33333,1.9046 -2.93333,0.3671 -8.61409,1.5928 -12.6239,2.7239 -4.00982,1.131 -8.86072,2.0564 -10.7798,2.0564 -1.91907,0 -7.03831,1.1156 -11.37609,2.479 -4.33778,1.3634 -11.48687,3.2664 -15.88687,4.2288 -6.88965,1.5071 -31.88657,9.7997 -40,13.2699 -11.38362,4.8688 -19.02158,8.6459 -21,10.3848 -1.28333,1.128 -2.33333,1.6456 -2.33333,1.1504 0,-0.4952 -2.4,0.324 -5.33334,1.8205 -2.93333,1.4964 -5.33416,3.4586 -5.33518,4.3604 -0.002,1.8737 -13.35666,6.1148 -21.71869,6.8972 -3.08703,0.2889 -10.41279,-0.034 -16.27946,-0.7179 z"
         id="path2" />
    </g>
  </g>
</svg>
